<svg xmlns="http://www.w3.org/2000/svg" viewBox="0 0 60 60"><defs><clipPath id="a"><path d="M58 30A28 28 0 1130 2a28 28 0 0128 28z" fill="none"/></clipPath><style>.d,.i{fill:none}.d{stroke:#aecbfa;stroke-linecap:round;stroke-linejoin:round}.e{fill:#669df6}.f{fill:#aecbfa}.i{stroke:#1a73e8;stroke-miterlimit:10}</style></defs><path d="M58 30A28 28 0 1130 2a28 28 0 0128 28z" fill="#e8f0fe"/><g clip-path="url(#a)"><path class="d" d="M56.26 24a6.76 6.76 0 00-6.74 5.32 5.89 5.89 0 00-1-.09 5.27 5.27 0 00-5.4 4.77H57"/><path class="e" d="M29.12 45.42h2V58h-2z"/><path class="d" d="M2.94 32.07A8.76 8.76 0 014 32a6.76 6.76 0 016.74 5.32 5.89 5.89 0 011-.09A5.29 5.29 0 0117.12 42H5.65"/></g><path class="f" d="M13.61 26l1.5-1.499 1.498 1.5-1.499 1.498zM42.112 42.995l.997-.997.997.997-.997.997zM39.612 13.003l1.5-1.499 1.499 1.5-1.5 1.498z"/><path class="e" d="M38.47 26.85L34.71 36l3 9.87H22.48L25.53 36l-3.76-9.11a2 2 0 010-1.5L28 10.22a2.28 2.28 0 014.2 0l6.25 15.13a2 2 0 01.02 1.5z"/><path d="M38.47 26.85L34.71 36l3 9.87h-4.5l-1-9.87L34 26.07 30.12 8.83a2.26 2.26 0 012.1 1.39l6.25 15.13a2 2 0 010 1.5z" fill="#8ab4f8"/><path d="M21.77 26.85L25.53 36l-3.05 9.87H27L28 36l-1.76-9.89 3.88-17.28A2.26 2.26 0 0028 10.22l-6.23 15.13a2 2 0 000 1.5z" fill="#4285f4"/><path class="i" d="M25.62 36.33h6M29.12 46.33h2"/><path d="M24.45 28.1l-.68-1.63a1 1 0 010-.76l.82-2" stroke="#8ab4f8" stroke-linecap="square" stroke-linejoin="round" fill="none"/></svg>