<svg xmlns="http://www.w3.org/2000/svg" viewBox="0 0 60 60"><defs><clipPath id="a"><path d="M58 30A28 28 0 1130 2a28 28 0 0128 28z" fill="none"/></clipPath><style>.d,.f,.g{fill:none}.c{fill:#5bb974}.d{stroke:#5bb974;stroke-miterlimit:10}.f,.g{stroke:#a8dab5}.f{stroke-linecap:round}.f,.g{stroke-linejoin:round}.h{fill:#a8dab5}</style></defs><path d="M58 30A28 28 0 1130 2a28 28 0 0128 28z" fill="#e6f4ea"/><path class="c" d="M29.12 29h2v29h-2z"/><path class="d" d="M21.62 28.5l9 9M38.62 28.5l-9 9"/><g clip-path="url(#a)"><path class="f" d="M54.21 42.84A77.2 77.2 0 0042.55 35S42 46.87 44 53.65M42.55 34.95l7.44 13.71"/><path class="g" d="M49.99 48.66l-7.3-2.13M47.46 44.01l1.33-5.25"/><circle class="h" cx="36.12" cy="41" r="1.5"/><circle class="h" cx="49.62" cy="15.5" r="1"/><circle class="h" cx="6.62" cy="31.5" r="1"/><path class="f" d="M3.8 38.27a6.92 6.92 0 014.75-1.85 6.79 6.79 0 016.74 5.43 5.71 5.71 0 011-.1 5.31 5.31 0 015.37 4.86H8.15"/><path class="g" d="M20.22 43.27a6.12 6.12 0 00.54-2.54 6.06 6.06 0 00-6-6.12 5.93 5.93 0 00-4.47 2"/></g><path stroke="#1e8e3e" stroke-miterlimit="10" fill="none" d="M29.12 29.5h2"/><path class="c" d="M50.62 29a20.51 20.51 0 00-41 0z"/><path d="M30.12 9a20.37 20.37 0 00-20.5 20h10.31A20.49 20.49 0 0130.12 9z" fill="#34a853"/><path d="M13.12 26a17.43 17.43 0 013-7" stroke="#81c995" stroke-linecap="square" stroke-linejoin="round" fill="none"/><path d="M30.12 9a20.39 20.39 0 0120.5 20H40.31A20.52 20.52 0 0030.12 9z" fill="#81c995"/></svg>